<svg xmlns="http://www.w3.org/2000/svg" xmlns:lucid="lucid" width="456" height="451"><g lucid:page-tab-id="0_0"><path d="M266.02 112c82.02 0 148.5 66.5 148.5 148.5S348.04 409 266.02 409h-77.9c-82.02 0-148.5-66.5-148.5-148.5S106.1 112 188.1 112z" stroke="#000" stroke-width="10" fill-opacity="0"/><path d="M265.43 130.56c71.76 0 129.93 58.18 129.93 129.94 0 71.76-58.17 129.94-129.93 129.94H187c-71.75 0-129.93-58.18-129.93-129.94 0-71.76 58.18-129.94 129.94-129.94z" stroke="#000" stroke-width="10" fill-opacity="0"/><path d="M265.16 149c60.78 0 110.06 49.28 110.06 110.06 0 60.8-49.28 110.06-110.06 110.06h-79.1C125.28 369.13 76 319.86 76 259.06 76 198.28 125.28 149 186.06 149z" stroke="#000" stroke-width="10" fill-opacity="0"/><path d="M265 169c49.7 0 90 40.3 90 90s-40.3 90-90 90h-80c-49.7 0-90-40.3-90-90s40.3-90 90-90z" stroke="#000" stroke-width="10" fill-opacity="0"/><path d="M95 57a6 6 0 0 1 6-6h248a6 6 0 0 1 6 6v28a6 6 0 0 1-6 6H101a6 6 0 0 1-6-6z"/></g></svg>