<svg xmlns="http://www.w3.org/2000/svg" xmlns:lucid="lucid" width="415" height="448"><g lucid:page-tab-id="0_0"><path d="M256.02 88c82.02 0 148.5 66.5 148.5 148.5S338.04 385 256.02 385h-77.9C96.1 385 29.6 318.5 29.6 236.5S96.1 88 178.1 88z" stroke="#fff" stroke-width="10" fill-opacity="0"/><path d="M255.43 106.56c71.76 0 129.93 58.18 129.93 129.94 0 71.76-58.17 129.94-129.93 129.94H177c-71.75 0-129.93-58.18-129.93-129.94 0-71.76 58.18-129.94 129.94-129.94z" stroke="#fff" stroke-width="10" fill-opacity="0"/><path d="M255.16 125c60.78 0 110.06 49.28 110.06 110.06 0 60.8-49.28 110.06-110.06 110.06h-79.1C115.28 345.13 66 295.86 66 235.06 66 174.28 115.28 125 176.06 125z" stroke="#fff" stroke-width="10" fill-opacity="0"/><path d="M255 145c49.7 0 90 40.3 90 90s-40.3 90-90 90h-80c-49.7 0-90-40.3-90-90s40.3-90 90-90z" stroke="#fff" stroke-width="10" fill-opacity="0"/><path d="M85 33a6 6 0 0 1 6-6h248a6 6 0 0 1 6 6v28a6 6 0 0 1-6 6H91a6 6 0 0 1-6-6z" fill="#fff"/><path d="M-7-9a6 6 0 0 1 6-6h428a6 6 0 0 1 6 6v468a6 6 0 0 1-6 6H-1a6 6 0 0 1-6-6z" stroke="#000" fill-opacity="0"/></g></svg>